<svg width="189" height="184" viewBox="0 0 189 184" fill="none" xmlns="http://www.w3.org/2000/svg">
<path d="M124.582 137.491C122.021 139.111 74.354 138.552 68.2304 137.113C62.1068 135.673 87.4359 135.187 97.0356 134.756C101.256 134.551 105.486 134.615 109.699 134.946C112.326 135.162 127.137 135.871 124.582 137.491Z" fill="#ADADAD"/>
<path d="M141.608 92.0005C141.616 98.6009 140.104 105.119 137.183 111.075C132.883 119.831 125.762 126.979 116.905 131.43C113.748 133.015 110.41 134.231 106.96 135.055C98.0606 137.172 88.7133 136.642 80.1268 133.532H80.1189C71.43 130.367 63.9415 124.694 58.6557 117.272C53.3699 109.849 50.539 101.032 50.542 92.0005C50.542 67.5178 70.9272 47.6719 96.0752 47.6719C118.314 47.6719 136.828 63.1923 140.815 83.7144C141.344 86.4463 141.61 89.2204 141.608 92.0005Z" fill="white" stroke="#353535" stroke-width="4" stroke-miterlimit="10"/>
<path d="M102.129 52.2539L97.2104 63.8275C103.157 67.401 108.719 71.5481 113.813 76.2061L128.159 71.0173C126.21 65.8206 123.519 60.917 120.166 56.4506C114.589 54.3009 108.533 52.9776 102.129 52.2539Z" fill="#353535"/>
<path d="M59.0533 97.6404L73.3511 91.7463L76.7894 71.7593L64.602 66.7637C60.3653 71.517 56.7632 76.5985 54.333 82.2611C54.7709 87.2643 56.4167 92.3964 59.0533 97.6404Z" fill="#353535"/>
<path d="M90.8115 105.122L111.332 97.2617C115.059 101.13 118.845 105.565 122.672 110.344C119.51 115.8 115.511 121.011 110.871 126.038C104.257 125.691 97.6971 124.69 91.2919 123.049L90.8115 105.122Z" fill="#353535"/>
<path d="M141.608 92.0007C141.616 98.6011 140.104 105.119 137.183 111.075L136.309 103.723C138.002 97.2554 138.876 91.0286 138.514 85.1697L140.815 83.7207C141.344 86.4506 141.61 89.2227 141.608 92.0007Z" fill="#353535"/>
<path d="M80.1247 133.532H80.1169C70.7804 130.12 62.8476 123.827 57.5298 115.613L61.1901 115.186C65.3308 119.991 70.4605 123.817 76.1809 127.06C76.9117 129.21 78.2263 131.368 80.1247 133.532Z" fill="#353535"/>
<path d="M116.905 131.43C113.747 133.014 110.41 134.231 106.96 135.055L112.685 132.252L116.905 131.43Z" fill="#353535"/>
<path d="M73.105 91.5586C73.3444 91.7579 73.5848 91.9562 73.8263 92.1535" stroke="#353535" stroke-miterlimit="10"/>
<path d="M75.2646 93.3281C80.0275 97.1967 84.7887 100.841 89.2822 104.048" stroke="#353535" stroke-miterlimit="10" stroke-dasharray="11.92 11.92"/>
<path d="M90.0459 104.584L90.8114 105.122" stroke="#353535" stroke-miterlimit="10"/>
<path d="M59.0033 97.2617C58.9665 97.5684 58.9343 97.875 58.9067 98.1816" stroke="#353535" stroke-miterlimit="10"/>
<path d="M58.7961 100.002C58.6622 104.311 59.3867 108.987 60.6436 113.547" stroke="#353535" stroke-miterlimit="10" stroke-dasharray="11.92 11.92"/>
<path d="M60.894 114.43C60.9812 114.726 61.0694 115.021 61.1586 115.313" stroke="#353535" stroke-miterlimit="10"/>
<path d="M54.5751 82.1113L53.7876 82.6189" stroke="#353535" stroke-miterlimit="10"/>
<path d="M52.0224 83.752L51.2349 84.2579" stroke="#353535" stroke-miterlimit="10"/>
<path d="M64.6016 66.9181C64.6908 66.6247 64.7853 66.3323 64.8851 66.041" stroke="#353535" stroke-miterlimit="10"/>
<path d="M65.479 64.4377C66.6608 61.528 68.2218 58.7782 70.1237 56.2559" stroke="#353535" stroke-miterlimit="10" stroke-dasharray="11.11 11.11"/>
<path d="M70.6484 55.5729C70.8374 55.3291 71.0312 55.0884 71.2281 54.8477" stroke="#353535" stroke-miterlimit="10"/>
<path d="M102.218 52.357C101.933 52.2297 101.646 52.1055 101.354 51.9844" stroke="#353535" stroke-miterlimit="10"/>
<path d="M99.5825 51.2864C96.3024 50.0854 92.9032 49.219 89.4395 48.7012" stroke="#353535" stroke-miterlimit="10" stroke-dasharray="12.13 12.13"/>
<path d="M88.4929 48.5649C88.1779 48.523 87.8629 48.4831 87.5479 48.4453" stroke="#353535" stroke-miterlimit="10"/>
<path d="M97.3382 63.7773L96.4609 64.1193" stroke="#353535" stroke-miterlimit="10"/>
<path d="M94.7203 64.7949L78.1875 71.2226" stroke="#353535" stroke-miterlimit="10" stroke-dasharray="11.9 11.9"/>
<path d="M77.3167 71.5605L76.4395 71.9025" stroke="#353535" stroke-miterlimit="10"/>
<path d="M127.858 70.7266C128.074 70.9504 128.288 71.1743 128.501 71.4012" stroke="#353535" stroke-miterlimit="10"/>
<path d="M129.734 72.7422C132.837 76.1891 135.667 79.9489 137.794 83.6871" stroke="#353535" stroke-miterlimit="10" stroke-dasharray="11.73 11.73"/>
<path d="M138.233 84.4766C138.379 84.7495 138.524 85.0224 138.663 85.2954" stroke="#353535" stroke-miterlimit="10"/>
<path d="M113.829 76.0371L113.725 76.951" stroke="#353535" stroke-miterlimit="10"/>
<path d="M113.516 78.7129L111.544 95.4661" stroke="#353535" stroke-miterlimit="10" stroke-dasharray="11.58 11.58"/>
<path d="M111.438 96.3477L111.332 97.2616" stroke="#353535" stroke-miterlimit="10"/>
<path d="M136.445 103.66L135.6 104.071" stroke="#353535" stroke-miterlimit="10"/>
<path d="M133.839 104.924L124.157 109.622" stroke="#353535" stroke-miterlimit="10" stroke-dasharray="12.49 12.49"/>
<path d="M123.278 110.049L122.433 110.46" stroke="#353535" stroke-miterlimit="10"/>
<path d="M110.801 125.82L111.061 126.705" stroke="#353535" stroke-miterlimit="10"/>
<path d="M111.516 128.258L112.198 130.588" stroke="#353535" stroke-miterlimit="10" stroke-dasharray="10.54 10.54"/>
<path d="M112.425 131.367L112.685 132.252" stroke="#353535" stroke-miterlimit="10"/>
<path d="M91.4272 122.984L90.5483 123.322" stroke="#353535" stroke-miterlimit="10"/>
<path d="M88.6535 124.014C84.9759 125.312 81.3125 126.341 77.9341 126.863" stroke="#353535" stroke-miterlimit="10" stroke-dasharray="12.84 12.84"/>
<path d="M76.9343 127.002C76.6193 127.042 76.3043 127.077 75.9893 127.106" stroke="#353535" stroke-miterlimit="10"/>
<path d="M118.378 56.551L120.404 55.5391" stroke="#38313E" stroke-miterlimit="10" stroke-dasharray="12 12"/>
</svg>
